<?xml version="1.0" encoding="UTF-8" standalone="no"?><!-- Generator: Gravit.io --><svg xmlns="http://www.w3.org/2000/svg" xmlns:xlink="http://www.w3.org/1999/xlink" style="isolation:isolate" viewBox="0 0 500 424.49" width="500pt" height="424.49pt"><defs><clipPath id="_clipPath_qI0bhF1Nf9r1xoBTRHNLZIe8ROzZo34r"><rect width="500" height="424.49"/></clipPath></defs><g clip-path="url(#_clipPath_qI0bhF1Nf9r1xoBTRHNLZIe8ROzZo34r)"><clipPath id="_clipPath_8DJjFt5k1F7JdhR5Es9cq0W8qTciSmMe"><path d=" M 0 0 L 0 424.49 L 500 424.49 L 500 0 L 0 0 Z " fill="rgb(255,255,255)"/></clipPath><g clip-path="url(#_clipPath_8DJjFt5k1F7JdhR5Es9cq0W8qTciSmMe)"><path d=" M 500 327.696 L 0 327.696 L 0 327.446 L 500 327.446 L 500 327.696 Z " fill="rgb(198,219,241)"/><path d=" M 121.395 339.797 L 76.534 339.797 L 76.534 339.547 L 121.395 339.547 L 121.395 339.797 Z " fill="rgb(198,219,241)"/><path d=" M 165 339.797 L 156.307 339.797 L 156.307 339.547 L 165 339.547 L 165 339.797 Z " fill="rgb(198,219,241)"/><path d=" M 244.444 339.922 L 225.085 339.922 L 225.085 339.672 L 244.444 339.672 L 244.444 339.922 Z " fill="rgb(198,219,241)"/><path d=" M 379.459 337.825 L 417.146 337.825 L 417.146 337.575 L 379.459 337.575 L 379.459 337.825 Z " fill="rgb(198,219,241)"/><path d=" M 426.05 337.825 L 437.889 337.825 L 437.889 337.575 L 426.05 337.575 L 426.05 337.825 Z " fill="rgb(198,219,241)"/><path d=" M 335.11 333.88 L 241.435 333.88 L 241.435 333.63 L 335.11 333.63 L 335.11 333.88 Z " fill="rgb(198,219,241)"/><path d=" M 43.915 0.25 C 40.905 0.25 38.457 2.698 38.457 5.708 L 38.457 277.139 C 38.457 280.149 40.905 282.597 43.915 282.597 L 237.014 282.597 C 240.022 282.597 242.471 280.149 242.471 277.139 L 242.471 5.708 C 242.471 2.698 240.022 0.25 237.014 0.25 L 43.915 0.25 Z  M 237.014 282.847 L 43.915 282.847 C 40.768 282.847 38.207 280.287 38.207 277.139 L 38.207 5.708 C 38.207 2.561 40.768 0 43.915 0 L 237.014 0 C 240.16 0 242.721 2.561 242.721 5.708 L 242.721 277.139 C 242.721 280.287 240.16 282.847 237.014 282.847 Z " fill="rgb(198,219,241)"/><path d=" M 260.212 0.25 C 257.203 0.25 254.755 2.698 254.755 5.708 L 254.755 277.139 C 254.755 280.149 257.203 282.597 260.212 282.597 L 453.311 282.597 C 456.32 282.597 458.769 280.149 458.769 277.139 L 458.769 5.708 C 458.769 2.698 456.32 0.25 453.311 0.25 L 260.212 0.25 Z  M 453.311 282.847 L 260.212 282.847 C 257.065 282.847 254.505 280.287 254.505 277.139 L 254.505 5.708 C 254.505 2.561 257.065 0 260.212 0 L 453.311 0 C 456.458 0 459.019 2.561 459.019 5.708 L 459.019 277.139 C 459.019 280.287 456.458 282.847 453.311 282.847 Z " fill="rgb(198,219,241)"/><path d=" M 299.116 327.571 L 418.672 327.571 L 418.672 63.159 L 299.116 63.159 L 299.116 327.571 Z " fill="rgb(218,231,246)"/><path d=" M 299.116 327.571 L 413.005 327.571 L 413.005 63.159 L 299.116 63.159 L 299.116 327.571 Z " fill="rgb(236,243,250)"/><path d=" M 407.005 321.571 L 407.005 69.159 L 305.115 69.159 L 305.115 321.571 L 407.005 321.571 Z " fill="rgb(224,236,248)"/><path d=" M 306.672 321.571 L 306.672 69.159 L 305.115 69.159 L 305.115 321.571 L 306.672 321.571 Z " fill="rgb(218,231,246)"/><path d=" M 313.611 184.436 C 313.611 187.259 315.899 189.547 318.723 189.547 C 321.545 189.547 323.833 187.259 323.833 184.436 C 323.833 181.613 321.545 179.325 318.723 179.325 C 315.899 179.325 313.611 181.613 313.611 184.436 Z " fill="rgb(218,231,246)"/><path d=" M 311.611 183.381 C 311.611 186.204 313.899 188.492 316.723 188.492 C 319.545 188.492 321.833 186.204 321.833 183.381 C 321.833 180.558 319.545 178.27 316.723 178.27 C 313.899 178.27 311.611 180.558 311.611 183.381 Z " fill="rgb(254,254,254)"/><path d=" M 52.98 164.944 L 231.246 164.944 L 231.246 37.903 L 52.98 37.903 L 52.98 164.944 Z " fill="rgb(198,219,241)"/><path d=" M 49.682 164.944 L 229.705 164.944 L 229.705 37.903 L 49.682 37.903 L 49.682 164.944 Z " fill="rgb(231,245,252)"/><path d=" M 225.08 43.087 L 225.08 159.757 L 54.29 159.757 L 54.29 43.087 L 225.08 43.087 Z " fill="rgb(240,248,253)"/><path d=" M 136.131 159.757 L 97.891 159.757 C 97.381 157.507 97.341 155.927 97.341 155.927 L 108.25 155.927 C 108.311 153.228 108.971 150.697 105.791 149.257 C 101.371 147.257 105.291 141.847 105.211 137.677 C 105.121 133.507 99.291 134.177 97.711 129.677 C 96.121 125.177 100.171 120.097 100.171 120.097 C 106.911 123.427 111.511 127.827 114.641 132.538 C 115.831 126.277 118.841 119.657 125.061 113.518 C 125.061 113.518 130.5 117.057 130.421 121.827 C 130.331 126.597 124.591 127.807 125.821 131.788 C 127.061 135.768 132.48 139.677 128.921 142.967 C 125.361 146.257 129.501 149.187 129.25 153.217 C 129.201 154.197 128.571 155.107 127.651 155.927 L 136.671 155.927 C 136.671 155.927 136.631 157.507 136.131 159.757 Z " fill="rgb(213,230,246)"/><path d=" M 186.09 159.757 L 155.25 159.757 C 155.67 157.417 156.24 155.277 157 153.387 L 156.86 153.387 C 156.54 153.387 156.31 153.188 156.41 152.998 L 157.12 150.507 C 157.19 150.377 157.37 150.297 157.58 150.297 L 157.61 150.297 C 157.68 148.377 157.73 146.567 157.73 144.737 C 156.46 145.617 155.16 146.467 153.78 147.268 C 152.89 147.768 151.97 148.257 150.93 148.688 C 150.41 148.897 149.86 149.107 149.23 149.277 C 148.9 149.357 148.57 149.438 148.17 149.498 C 147.906 149.531 147.62 149.56 147.28 149.56 C 147.117 149.56 146.941 149.554 146.75 149.538 C 146.19 149.467 145.41 149.317 144.59 148.717 C 143.75 148.128 143.18 147.087 143.03 146.337 C 142.85 145.607 142.9 144.898 142.9 144.768 L 142.94 143.978 C 142.97 142.907 143.09 141.897 143.19 140.867 C 143.7 136.797 144.63 132.927 145.72 129.128 C 146.41 126.757 147.16 124.447 147.99 122.137 L 146.48 121.057 C 146.48 121.057 149.83 111.467 152.61 110.617 L 152.68 110.608 C 152.87 110.557 153.05 110.518 153.23 110.498 C 154.52 110.237 157.66 109.657 161.27 109.297 L 161.28 109.248 L 164.6 108.858 C 166.58 106.688 166.62 102.027 166.18 98.168 C 163.207 97.147 161.001 95.568 159.461 93.731 C 159.228 93.738 159.003 93.741 158.784 93.741 C 156.533 93.741 155.036 93.371 154.113 92.765 C 149.28 93.74 146.563 105.065 136.295 105.065 C 135.207 105.065 134.033 104.938 132.764 104.657 C 127.258 103.441 120.757 97.641 125.932 92.011 C 125.713 94 127.467 95.342 129.846 95.342 C 133.126 95.342 137.595 92.79 139.718 85.865 C 140.492 83.343 141.62 82.419 142.944 82.419 C 145.99 82.419 150.072 87.304 153.253 88.852 C 153.935 87.157 155.462 85.363 157.018 84.075 C 157.216 83.237 157.507 82.431 157.91 81.688 C 158.43 80.737 159.1 79.897 159.92 79.188 C 159.9 78.897 159.89 78.608 159.9 78.307 L 159.9 78.297 C 159.93 76.688 160.47 75.087 161.79 73.617 C 161.88 73.507 161.98 73.397 162.08 73.297 C 163.07 72.277 164.08 71.478 165.1 70.858 C 167.117 69.617 169.148 69.102 171.083 69.102 C 174.061 69.102 176.812 70.321 178.94 71.987 C 188.18 73.688 187.55 80.887 185.15 86.177 L 184.81 86.887 C 184.76 86.987 184.71 87.077 184.67 87.168 C 184.81 90.847 183.91 94.737 182.62 97.557 C 181.121 100.841 178.128 102.517 175.033 102.517 C 174.433 102.517 173.828 102.454 173.23 102.327 C 173.2 102.458 173.17 102.587 173.15 102.717 C 173.1 103.027 173.06 103.337 173.03 103.647 C 172.83 105.947 173.51 108.047 176.64 108.947 L 176.79 108.837 L 179 109.097 L 179.23 109.297 C 181.96 109.627 184.64 110.077 186.44 110.407 C 187.09 110.478 187.81 110.617 188.61 110.817 C 191.44 111.538 193.41 123.148 193.41 123.148 L 191.49 124.447 C 191.53 124.728 191.57 124.998 191.61 125.268 C 191.93 127.467 192.28 129.657 192.72 131.827 C 193.16 133.998 193.69 136.128 194.25 138.248 C 194.82 140.337 195.56 142.438 196.32 144.337 C 196.47 144.757 197.01 145.458 197.66 146.107 C 197.955 146.398 198.276 146.688 198.616 146.976 C 197.984 148.963 197.374 150.962 196.795 152.959 C 196.757 152.935 196.718 152.911 196.68 152.887 C 195.62 152.217 194.57 151.487 193.53 150.607 C 192.5 149.708 191.46 148.657 190.62 147.007 C 189.32 144.217 188.26 141.438 187.39 138.628 C 186.91 142.077 186.34 145.947 185.64 150.297 L 185.73 150.297 C 186.01 150.297 186.22 150.447 186.21 150.617 L 185.95 153.107 C 185.94 153.257 185.73 153.387 185.48 153.387 L 185.47 153.387 C 185.6 154.668 185.82 156.867 186.09 159.757 Z  M 147.5 143.418 C 147.397 143.432 147.434 143.441 147.532 143.441 C 147.568 143.441 147.612 143.44 147.66 143.438 L 147.5 143.418 Z  M 153.97 126.407 C 153.42 127.987 152.89 129.567 152.39 131.137 C 151.84 132.918 151.31 134.708 150.86 136.487 C 150.37 138.268 149.99 140.047 149.67 141.817 C 149.61 142.208 149.54 142.597 149.48 142.987 C 150.09 142.788 150.72 142.567 151.36 142.307 C 153.41 141.467 155.49 140.467 157.57 139.437 C 157.37 136.148 156.96 132.507 156.2 128.007 L 153.97 126.407 Z " fill="rgb(213,230,246)"/><path d=" M 225.085 159.757 L 194.945 159.757 L 194.945 159.757 L 225.08 159.757 L 225.08 43.087 L 225.085 43.087 L 225.085 88.038 L 225.085 92.107 L 225.085 159.757 Z " fill="rgb(211,229,245)"/><path d=" M 225.08 159.757 L 194.945 159.757 C 195.518 157.498 196.137 155.228 196.795 152.959 C 197.374 150.962 197.984 148.963 198.616 146.976 C 207.639 118.597 221.395 92.107 221.395 92.107 L 221.785 92.107 C 221.045 92.107 220.445 91.507 220.445 90.768 L 220.445 89.378 C 220.445 88.637 221.045 88.038 221.785 88.038 L 221.395 88.038 C 221.395 88.038 198.845 73.327 192.545 43.087 L 225.08 43.087 L 225.08 159.757 Z " fill="rgb(213,230,246)"/><path d=" M 86.265 159.757 L 54.885 159.757 L 54.885 92.107 L 54.885 88.038 L 54.885 43.087 L 88.665 43.087 C 82.375 73.327 59.815 88.038 59.815 88.038 L 59.425 88.038 C 60.165 88.038 60.765 88.637 60.765 89.378 L 60.765 90.768 C 60.765 91.507 60.165 92.107 59.425 92.107 L 59.815 92.107 C 59.815 92.107 78.005 127.117 86.265 159.757 Z " fill="rgb(213,230,246)"/><path d=" M 54.885 159.758 L 54.885 43.09 L 54.299 43.09 L 54.299 159.758 L 54.885 159.758 Z " fill="rgb(198,219,241)"/><path d=" M 447.026 186.31 L 428.125 186.31 L 428.125 167.409 L 447.026 167.409 L 447.026 186.31 Z " fill="rgb(210,226,243)"/><path d=" M 447.026 186.31 L 447.667 186.31 L 447.667 167.409 L 447.026 167.409 L 447.026 186.31 Z " fill="rgb(191,214,239)"/><path d=" M 429.89 182.709 L 430.568 183.39 L 444.633 183.39 L 444.633 170.43 L 429.89 182.709 Z " fill="rgb(191,214,239)"/><path d=" M 443.354 182.709 L 429.89 182.709 L 431.168 170.43 L 444.633 170.43 L 443.354 182.709 Z " fill="rgb(254,254,254)"/><path d=" M 272.667 226.131 L 261.546 216.086 L 250.426 226.131 L 250.426 327.696 L 272.667 327.696 L 272.667 226.131 Z " fill="rgb(224,236,248)"/><path d=" M 234.122 226.131 L 223.001 216.086 L 211.88 226.131 L 211.88 327.696 L 234.122 327.696 L 234.122 226.131 Z " fill="rgb(224,236,248)"/><path d=" M 195.576 226.131 L 184.456 216.086 L 173.335 226.131 L 173.335 327.696 L 195.576 327.696 L 195.576 226.131 Z " fill="rgb(224,236,248)"/><path d=" M 157.031 226.131 L 145.91 216.086 L 134.79 226.131 L 134.79 327.696 L 157.031 327.696 L 157.031 226.131 Z " fill="rgb(224,236,248)"/><path d=" M 118.485 226.131 L 107.365 216.086 L 96.245 226.131 L 96.245 327.696 L 118.485 327.696 L 118.485 226.131 Z " fill="rgb(224,236,248)"/><path d=" M 79.94 226.131 L 68.82 216.086 L 57.699 226.131 L 57.699 327.696 L 79.94 327.696 L 79.94 226.131 Z " fill="rgb(224,236,248)"/><path d=" M 41.395 226.131 L 30.274 216.086 L 19.154 226.131 L 19.154 327.696 L 41.395 327.696 L 41.395 226.131 Z " fill="rgb(224,236,248)"/><path d=" M 261.546 250.387 L 30.274 250.387 L 30.274 244.717 L 261.546 244.717 L 261.546 250.387 Z " fill="rgb(224,236,248)"/><path d=" M 443.889 361.286 C 443.889 367.54 357.082 372.609 250 372.609 C 142.918 372.609 56.111 367.54 56.111 361.286 C 56.111 355.032 142.918 349.962 250 349.962 C 357.082 349.962 443.889 355.032 443.889 361.286 Z " fill="rgb(232,240,249)"/><path d=" M 428.125 206.38 L 359.752 206.38 L 359.752 359.834 L 428.125 359.834 L 428.125 206.38 Z " fill="rgb(210,226,243)"/><path d=" M 228.81 206.38 L 359.752 206.38 L 359.752 359.834 L 228.81 359.834 L 228.81 206.38 Z " fill="rgb(224,235,247)"/><path d=" M 228.81 232.616 L 256.669 232.616 L 256.669 265.41 L 228.81 265.41 L 228.81 232.616 Z " fill="rgb(210,226,243)"/><path d=" M 336.312 232.616 L 364.171 232.616 L 364.171 265.41 L 336.312 265.41 L 336.312 232.616 Z " fill="rgb(210,226,243)"/><path d=" M 291.757 346.415 L 350.241 346.415 L 350.241 319.983 L 291.757 319.983 L 291.757 346.415 Z " fill="rgb(210,226,243)"/><path d=" M 291.757 311.59 L 350.241 311.59 L 350.241 285.159 L 291.757 285.159 L 291.757 311.59 Z " fill="rgb(210,226,243)"/><path d=" M 250.252 192.976 L 213.788 192.976 L 213.788 359.834 L 250.252 359.834 L 250.252 192.976 Z " fill="rgb(121,173,220)"/><path d=" M 134.838 192.976 L 213.788 192.976 L 213.788 359.834 L 134.838 359.834 L 134.838 192.976 Z " fill="rgb(210,226,243)"/><path d=" M 165.915 192.976 L 182.711 192.976 L 182.711 211.108 L 165.915 211.108 L 165.915 192.976 Z " fill="rgb(119,172,220)"/><path d=" M 142.436 345.242 L 157.632 345.242 L 157.632 316.501 L 142.436 316.501 L 142.436 345.242 Z " fill="rgb(119,172,220)"/><path d=" M 393.981 276.405 L 392.981 276.405 L 392.981 269.38 L 393.981 269.38 L 393.981 276.405 Z " fill="rgb(55,103,175)"/><path d=" M 393.981 299.902 L 392.981 299.902 L 392.981 281.044 L 393.981 281.044 L 393.981 299.902 Z " fill="rgb(55,103,175)"/><path d=" M 390.481 244.297 L 332.203 244.297 L 332.203 359.834 L 390.481 359.834 L 390.481 244.297 Z " fill="rgb(55,103,175)"/><path d=" M 228.81 244.297 L 332.203 244.297 L 332.203 359.834 L 228.81 359.834 L 228.81 244.297 Z " fill="rgb(151,189,228)"/><path d=" M 269.508 244.297 L 291.506 244.297 L 291.506 256.852 L 269.508 256.852 L 269.508 244.297 Z " fill="rgb(119,172,220)"/><path d=" M 238.76 349.73 L 258.661 349.73 L 258.661 329.83 L 238.76 329.83 L 238.76 349.73 Z " fill="rgb(210,226,243)"/><path d=" M 266.957 349.73 L 286.857 349.73 L 286.857 329.83 L 266.957 329.83 L 266.957 349.73 Z " fill="rgb(210,226,243)"/><path d=" M 195.546 313.674 L 157.024 313.674 L 157.024 359.834 L 195.546 359.834 L 195.546 313.674 Z " fill="rgb(55,103,175)"/><path d=" M 175.764 297.402 L 169.996 297.402 L 169.996 296.402 L 175.764 296.402 L 175.764 297.402 Z " fill="rgb(55,103,175)"/><path d=" M 194.294 297.402 L 184.456 297.402 L 184.456 296.402 L 194.294 296.402 L 194.294 297.402 Z " fill="rgb(55,103,175)"/><path d=" M 195.546 313.674 L 157.024 313.674 L 164.752 299.902 L 203.274 299.902 L 195.546 313.674 Z " fill="rgb(55,103,175)"/><path d=" M 119.473 299.902 L 80.951 299.902 L 88.68 313.674 L 127.202 313.674 L 119.473 299.902 Z " fill="rgb(151,189,228)"/><path d=" M 88.68 313.674 L 157.024 313.674 L 157.024 359.834 L 88.68 359.834 L 88.68 313.674 Z " fill="rgb(151,189,228)"/><path d=" M 88.68 328.924 L 104.339 328.924 L 104.339 344.584 L 88.68 344.584 L 88.68 328.924 Z " fill="rgb(55,103,175)"/><path d=" M 141.909 328.924 L 157.569 328.924 L 157.569 344.584 L 141.909 344.584 L 141.909 328.924 Z " fill="rgb(55,103,175)"/><path d=" M 263.81 359.817 L 256.454 359.817 L 254.597 342.784 L 261.952 342.784 L 263.81 359.817 Z " fill="rgb(244,141,128)"/><path d=" M 256.446 358.965 L 264.479 358.965 C 264.78 358.965 265.054 359.174 265.139 359.468 L 267.023 366.006 C 267.219 366.684 266.746 367.327 266.052 367.315 C 263.15 367.265 258.952 367.095 255.311 367.095 C 251.052 367.095 247.389 367.328 242.395 367.328 C 239.375 367.328 238.336 364.275 239.582 363.999 C 245.253 362.74 249.942 362.605 254.712 359.539 C 255.23 359.206 255.812 358.965 256.446 358.965 Z " fill="rgb(44,70,101)"/><path d=" M 254.599 342.788 L 255.555 351.568 L 262.913 351.568 L 261.958 342.788 L 254.599 342.788 Z " fill="rgb(238,123,110)"/><path d=" M 252.031 358.727 C 251.894 358.727 251.782 358.749 251.707 358.794 C 251.665 358.82 251.622 358.86 251.621 358.967 C 251.619 359.208 251.703 359.394 251.878 359.539 C 252.36 359.938 253.57 360.008 255.165 359.743 C 254.113 359.256 252.727 358.727 252.031 358.727 Z  M 253.459 360.251 C 252.735 360.251 252.059 360.14 251.656 359.807 C 251.398 359.594 251.27 359.311 251.273 358.963 C 251.275 358.758 251.362 358.596 251.525 358.497 C 252.378 357.982 255.451 359.487 255.8 359.661 L 255.895 359.839 L 255.756 359.988 C 255.141 360.112 254.27 360.251 253.459 360.251 Z " fill="rgb(83,120,186)"/><path d=" M 253.729 357.01 L 253.626 357.015 C 253.333 357.045 253.316 357.153 253.312 357.188 C 253.234 357.681 254.514 358.94 255.479 359.498 C 255.303 358.74 254.786 357.01 253.729 357.01 Z  M 255.722 359.991 L 255.652 359.977 C 254.713 359.568 252.838 357.96 252.967 357.134 C 252.996 356.948 253.128 356.716 253.591 356.669 L 253.733 356.662 C 255.37 356.662 255.872 359.658 255.894 359.79 L 255.828 359.955 L 255.722 359.991 Z " fill="rgb(83,120,186)"/><path d=" M 291.221 306.532 L 284.968 310.405 L 274.421 296.9 L 280.675 293.028 L 291.221 306.532 Z " fill="rgb(244,141,128)"/><path d=" M 284.513 309.684 L 291.342 305.456 C 291.598 305.297 291.94 305.331 292.167 305.536 L 297.211 310.102 C 297.734 310.576 297.671 311.371 297.074 311.726 C 294.582 313.211 290.923 315.277 287.826 317.195 C 284.206 319.436 281.214 321.562 276.969 324.191 C 274.401 325.781 271.91 323.733 272.823 322.841 C 276.982 318.786 280.898 316.203 283.34 311.085 C 283.605 310.528 283.973 310.019 284.513 309.684 Z " fill="rgb(44,70,101)"/><path d=" M 274.425 296.903 L 279.86 303.865 L 285.659 299.405 L 280.682 293.029 L 274.425 296.903 Z " fill="rgb(238,123,110)"/><path d=" M 283.832 311.02 C 282.452 311.188 280.633 311.557 280.393 312.034 C 280.37 312.078 280.355 312.134 280.411 312.226 C 280.535 312.431 280.705 312.546 280.93 312.577 C 281.553 312.663 282.617 312.085 283.832 311.02 Z  M 281.059 312.934 L 280.883 312.922 C 280.552 312.876 280.293 312.704 280.112 312.406 C 280.006 312.23 279.995 312.047 280.081 311.876 C 280.531 310.987 283.941 310.652 284.329 310.617 L 284.504 310.719 L 284.464 310.918 C 283.643 311.688 282.146 312.934 281.059 312.934 Z " fill="rgb(83,120,186)"/><path d=" M 281.696 309.309 C 281.479 309.309 281.272 309.369 281.088 309.51 C 280.855 309.69 280.897 309.791 280.911 309.823 C 281.098 310.264 282.721 310.648 283.836 310.648 L 283.969 310.646 C 283.521 310.195 282.533 309.309 281.696 309.309 Z  M 283.866 310.994 C 282.71 310.994 280.869 310.619 280.59 309.959 C 280.517 309.785 280.507 309.518 280.875 309.235 C 282.27 308.159 284.388 310.574 284.477 310.676 L 284.508 310.851 L 284.369 310.963 C 284.227 310.984 284.056 310.994 283.866 310.994 Z " fill="rgb(83,120,186)"/><path d=" M 291.917 162.991 C 289.096 167.497 286.155 171.722 282.977 175.909 C 281.385 177.988 279.767 180.057 278.048 182.069 C 276.353 184.094 274.578 186.084 272.685 188.016 L 271.97 188.74 L 271.612 189.102 C 271.472 189.24 271.434 189.294 271.171 189.533 C 270.738 189.931 270.28 190.334 269.857 190.607 L 269.206 191.047 L 268.581 191.401 C 266.913 192.307 265.381 192.765 263.909 193.147 C 260.973 193.887 258.219 194.127 255.501 194.275 C 250.063 194.501 244.861 194.142 239.577 193.334 L 239.812 187.816 C 244.748 187.316 249.799 186.712 254.528 185.81 C 256.887 185.364 259.204 184.792 261.171 184.067 C 262.143 183.709 263.024 183.265 263.566 182.879 L 263.765 182.742 L 263.89 182.62 C 264.003 182.539 263.996 182.487 264.033 182.452 L 265.129 181.158 C 268.214 177.442 271.169 173.428 274.045 169.354 C 276.915 165.293 279.778 161.09 282.511 157.006 L 291.917 162.991 Z " fill="rgb(244,141,128)"/><path d=" M 295.5 158.33 C 296.961 165.209 281.632 182.48 281.632 182.48 L 268.289 172.37 C 268.289 172.37 273.133 163.329 279.282 156.624 C 285.596 149.739 293.896 150.78 295.5 158.33 Z " fill="rgb(83,120,186)"/><path d=" M 295.594 159.186 C 292.947 157.402 289.578 158.046 285.551 162.931 C 281.573 167.768 277.564 176.404 276.947 178.931 L 281.634 182.48 C 281.634 182.48 295.787 166.532 295.594 159.186 Z " fill="rgb(70,113,182)"/><path d=" M 240.72 188.054 L 233.518 185.161 L 229.972 192.976 C 229.972 192.976 237.194 195.047 241.3 192.976 L 240.72 188.054 Z " fill="rgb(244,141,128)"/><path d=" M 225.494 185.386 L 222.417 192.976 L 229.972 192.976 L 233.518 185.161 L 225.494 185.386 Z " fill="rgb(244,141,128)"/><path d=" M 277.633 214.829 C 277.633 214.829 253.457 248.614 246.717 270.278 C 239.706 292.811 251.82 347.261 251.82 347.261 L 265.104 347.095 C 265.104 347.095 261.041 295.249 269.282 273.325 C 278.267 249.424 304.117 218.376 304.117 218.376 L 277.633 214.829 Z " fill="rgb(41,58,77)"/><path d=" M 265.814 347.699 L 251.11 347.882 L 250 343.603 L 265.667 342.784 L 265.814 347.699 Z " fill="rgb(83,120,186)"/><path d=" M 287.622 152.04 C 287.622 152.04 275.699 172.694 277.633 214.829 C 289.353 216.611 310.825 219.876 316.527 220.744 C 317.704 214.814 318.382 185.118 328.419 157.861 C 328.419 157.861 321.955 155.509 315.648 154.236 C 310.715 153.241 303.544 151.989 299.114 151.723 C 293.274 151.373 287.622 152.04 287.622 152.04 Z " fill="rgb(83,120,186)"/><path d=" M 317.333 170.379 C 315.208 178.756 316.917 189.172 316.917 189.172 L 320.18 190.397 C 320.92 185.867 321.84 181.067 322.99 176.157 L 317.333 170.379 Z " fill="rgb(70,113,182)"/><path d=" M 316.841 135.37 C 314.989 140.532 312.466 150.121 315.648 154.236 C 315.648 154.236 313.369 159.439 303.488 157.909 C 295.598 156.686 299.114 151.723 299.114 151.723 C 305.262 151.209 305.778 146.784 305.373 142.493 L 316.841 135.37 Z " fill="rgb(244,141,128)"/><path d=" M 314.694 151.353 C 314.694 151.353 312.061 155.49 302.725 157.783 C 302.725 157.783 303.527 160.381 302.5 163.547 C 302.5 163.547 313.75 159.936 316.473 154.242 L 314.694 151.353 Z " fill="rgb(44,70,101)"/><path d=" M 298.806 162.27 C 298.806 162.27 300.311 159.054 302.725 157.783 C 301.667 155.909 300.917 152.02 302.5 150.52 C 302.5 150.52 300.278 150.713 299.027 151.186 C 299.027 151.186 296.639 154.381 298.806 162.27 Z " fill="rgb(44,70,101)"/><path d=" M 301.632 170.663 L 300.4 175.511 C 300.4 175.511 306.856 176.628 310.905 177.847 L 312.247 172.902 C 312.247 172.902 306.602 171.179 301.632 170.663 Z " fill="rgb(151,189,228)"/><path d=" M 312.166 138.277 L 305.379 142.489 C 305.478 143.505 305.52 144.526 305.442 145.501 C 307.759 145.519 311.25 143.504 311.852 141.168 C 312.151 140.002 312.274 138.857 312.166 138.277 Z " fill="rgb(238,123,110)"/><path d=" M 302.422 116.435 C 298.613 117.405 295.143 127.144 299.37 130.144 C 303.598 133.145 309.636 114.597 302.422 116.435 Z " fill="rgb(46,58,85)"/><path d=" M 318.691 127.46 C 317.153 134.597 316.616 138.852 312.416 141.996 C 306.098 146.725 297.707 142.074 297.082 134.622 C 296.52 127.915 299.129 117.371 306.616 115.577 C 313.992 113.809 320.229 120.324 318.691 127.46 Z " fill="rgb(244,141,128)"/><path d=" M 291.431 216.927 C 291.431 216.927 233.417 215.214 235.344 232.384 C 237.978 255.838 275.924 302.464 275.924 302.464 L 284.388 294.603 C 284.388 294.603 267.484 261.224 263.932 246.341 C 262.25 239.297 297.167 249.005 306.041 242.903 C 311.464 239.173 314.737 231.979 316.527 220.744 C 301.351 218.436 291.431 216.927 291.431 216.927 Z " fill="rgb(44,70,101)"/><path d=" M 286.034 295.297 L 275.269 303.865 L 271.473 299.992 L 283.806 291.575 L 286.034 295.297 Z " fill="rgb(83,120,186)"/><path d=" M 307.459 127.813 C 307.37 128.399 306.986 128.827 306.604 128.769 C 306.22 128.71 305.981 128.188 306.07 127.601 C 306.16 127.015 306.543 126.586 306.927 126.645 C 307.31 126.703 307.548 127.226 307.459 127.813 Z " fill="rgb(46,58,85)"/><path d=" M 300.829 126.804 C 300.74 127.391 300.357 127.819 299.974 127.761 C 299.59 127.702 299.352 127.18 299.44 126.593 C 299.53 126.006 299.913 125.578 300.297 125.637 C 300.68 125.695 300.919 126.218 300.829 126.804 Z " fill="rgb(46,58,85)"/><path d=" M 302.893 127.417 C 302.893 127.417 301.044 130.598 299.328 132.007 C 300.218 133.133 302.05 132.959 302.05 132.959 L 302.893 127.417 Z " fill="rgb(240,103,101)"/><path d=" M 304.377 134.905 C 304.104 134.905 303.815 134.884 303.513 134.838 C 303.418 134.824 303.353 134.735 303.367 134.64 C 303.382 134.544 303.474 134.485 303.565 134.494 C 306.129 134.888 307.616 133.27 307.63 133.253 L 307.876 133.24 L 307.89 133.485 C 307.832 133.55 306.595 134.905 304.377 134.905 Z " fill="rgb(46,58,85)"/><path d=" M 309.835 125.982 C 309.712 125.982 309.592 125.917 309.528 125.8 C 308.787 124.434 307.509 124.315 307.496 124.314 C 307.305 124.299 307.162 124.13 307.177 123.939 C 307.192 123.748 307.344 123.599 307.553 123.62 C 307.62 123.625 309.222 123.773 310.142 125.468 C 310.233 125.637 310.17 125.848 310.001 125.94 L 309.835 125.982 Z " fill="rgb(46,58,85)"/><path d=" M 298.326 124.09 L 298.129 124.028 C 297.97 123.919 297.93 123.702 298.039 123.543 C 299.131 121.959 300.752 121.975 300.809 121.981 C 301.001 121.985 301.153 122.145 301.148 122.337 C 301.144 122.527 300.988 122.677 300.8 122.677 L 300.785 122.677 C 300.67 122.677 299.461 122.707 298.613 123.939 C 298.546 124.037 298.437 124.09 298.326 124.09 Z " fill="rgb(46,58,85)"/><path d=" M 329.129 164.248 C 330.613 170.715 331.807 177.113 332.793 183.639 C 333.797 190.152 334.593 196.71 334.83 203.527 L 334.86 206.122 L 334.865 206.771 L 334.84 207.508 C 334.827 208.007 334.794 208.49 334.747 208.96 C 334.585 210.861 334.248 212.637 333.859 214.362 C 333.086 217.808 332.003 221.029 330.827 224.184 C 328.423 230.477 325.56 236.389 322.196 242.166 L 317.196 239.819 C 319.208 233.809 321.121 227.652 322.658 221.603 C 323.414 218.578 324.071 215.545 324.479 212.62 C 324.678 211.161 324.796 209.723 324.823 208.39 C 324.834 208.053 324.833 207.726 324.815 207.416 L 324.799 206.939 L 324.759 206.374 L 324.597 204.115 C 324.02 197.998 322.988 191.71 321.893 185.443 C 320.75 179.19 319.506 172.859 318.245 166.666 L 329.129 164.248 Z " fill="rgb(244,141,128)"/><path d=" M 328.419 157.861 C 335.072 160.137 335.605 186.956 335.605 186.956 L 318.389 187.936 C 318.389 187.936 316.634 177.277 316.302 168.194 C 315.954 158.677 321.292 155.422 328.419 157.861 Z " fill="rgb(83,120,186)"/><path d=" M 317.965 238.955 L 311.896 244.338 L 321.026 246.378 C 321.026 246.378 324.571 241.714 322.896 239.38 L 317.965 238.955 Z " fill="rgb(244,141,128)"/><path d=" M 311.833 251.15 L 319.466 252.481 L 321.026 246.378 L 311.896 244.338 L 311.833 251.15 Z " fill="rgb(244,141,128)"/><path d=" M 325.255 123.728 C 321.465 122.438 317.854 121.067 314.515 119.677 C 298.704 113.117 287.688 106.936 291.744 104.877 C 292.739 104.372 294.185 104.527 295.854 104.978 C 305.755 107.617 324.614 123.197 325.255 123.728 Z " fill="rgb(70,113,182)"/><path d=" M 325.39 122.688 C 325.39 126.976 318.427 137.508 315.444 136.78 C 312.462 136.052 312.571 129.344 314.996 123.633 C 316.816 119.347 312.395 121.18 307.05 119.881 C 298.885 117.896 301.605 114.742 295.328 114.353 C 295.328 114.353 299.563 110.006 304.703 113.422 C 308.22 115.76 307.883 113.243 313.994 115.284 C 320.105 117.325 325.39 118.884 325.39 122.688 Z " fill="rgb(46,58,85)"/><path d=" M 320.737 135.896 C 319.464 137.396 317.616 138.169 316.002 138.275 C 313.574 138.434 312.858 136.142 313.95 134.111 C 314.933 132.284 317.38 129.999 319.616 130.794 C 321.819 131.578 322.194 134.18 320.737 135.896 Z " fill="rgb(244,141,128)"/><path d=" M 321.606 110.547 C 314.255 105.179 306.83 110.325 305.379 112.714 L 325.277 123.741 C 327.227 122.601 328.911 115.881 321.606 110.547 Z " fill="rgb(70,113,182)"/><path d=" M 295.854 104.978 C 305.755 107.617 324.614 123.197 325.255 123.728 C 321.465 122.438 317.854 121.067 314.515 119.677 C 309.582 117.12 306.549 115.261 305.776 113.381 C 304.476 110.214 301.77 107.157 295.854 104.978 Z " fill="rgb(83,120,186)"/><path d=" M 179.9 146.911 L 166.667 146.911 L 166.667 177.804 L 179.9 177.804 L 179.9 146.911 Z " fill="rgb(55,103,175)"/><path d=" M 143.19 146.911 L 166.667 146.911 L 166.667 177.804 L 143.19 177.804 L 143.19 146.911 Z " fill="rgb(151,189,228)"/><path d=" M 148.842 146.911 L 161.015 146.911 L 161.015 155.092 L 148.842 155.092 L 148.842 146.911 Z " fill="rgb(119,172,220)"/><path d=" M 149.468 177.763 L 153.987 177.763 L 153.987 165.767 L 149.468 165.767 L 149.468 177.763 Z " fill="rgb(210,226,243)"/><path d=" M 155.871 177.763 L 160.389 177.763 L 160.389 165.767 L 155.871 165.767 L 155.871 177.763 Z " fill="rgb(210,226,243)"/><path d=" M 160.144 122.71 L 151.171 138.25 L 151.194 137.153 L 154.966 148.479 L 154.329 148.752 L 148.746 138.199 L 148.515 137.762 L 148.769 137.103 L 155.211 120.355 L 160.144 122.71 Z " fill="rgb(62,112,181)"/><path d=" M 179.9 118.587 L 179.9 118.768 C 179.9 122.777 176.62 126.057 172.61 126.057 L 155.75 126.057 C 158.58 126.057 160.9 123.737 160.9 120.907 L 160.9 116.447 C 160.9 113.617 158.58 111.297 155.75 111.297 L 172.61 111.297 C 176.62 111.297 179.9 114.577 179.9 118.587 Z " fill="rgb(55,103,175)"/><path d=" M 172.88 127.018 L 172.88 127.137 C 172.88 129.607 170.86 131.637 168.38 131.637 L 154.71 131.637 C 152.24 131.637 150.21 129.607 150.21 127.137 L 150.21 127.018 C 150.21 124.547 152.24 122.518 154.71 122.518 L 168.38 122.518 C 170.86 122.518 172.88 124.547 172.88 127.018 Z " fill="rgb(55,103,175)"/><path d=" M 158.68 125.467 L 158.68 128.688 C 158.68 130.307 157.35 131.637 155.73 131.637 L 154.71 131.637 C 152.24 131.637 150.21 129.607 150.21 127.137 L 150.21 127.018 C 150.21 124.547 152.24 122.518 154.71 122.518 L 155.73 122.518 C 157.35 122.518 158.68 123.847 158.68 125.467 Z " fill="rgb(62,112,181)"/><path d=" M 197.29 121.533 L 125.803 121.533 C 124.232 121.533 122.947 120.248 122.947 118.677 C 122.947 117.106 124.232 115.821 125.803 115.821 L 197.29 115.821 C 198.861 115.821 200.146 117.106 200.146 118.677 C 200.146 120.248 198.861 121.533 197.29 121.533 Z " fill="rgb(55,103,175)"/><path d=" M 122.947 125.538 L 122.947 125.538 C 121.128 125.538 119.641 124.05 119.641 122.231 L 119.641 115.122 C 119.641 113.303 121.128 111.815 122.947 111.815 C 124.766 111.815 126.254 113.303 126.254 115.122 L 126.254 122.231 C 126.254 124.05 124.766 125.538 122.947 125.538 Z " fill="rgb(62,112,181)"/><path d=" M 120.181 109.631 L 120.181 109.631 C 120.181 108.898 120.78 108.298 121.514 108.298 L 124.381 108.298 C 125.114 108.298 125.714 108.898 125.714 109.631 C 125.714 110.365 125.114 110.965 124.381 110.965 L 121.514 110.965 C 120.78 110.965 120.181 110.365 120.181 109.631 Z " fill="rgb(62,112,181)"/><path d=" M 119.165 109.727 L 119.165 109.536 C 119.165 109.281 118.957 109.072 118.702 109.072 L 109.433 109.072 C 109.178 109.072 108.97 109.281 108.97 109.536 L 108.97 109.727 C 108.97 109.982 109.178 110.19 109.433 110.19 L 118.702 110.19 C 118.957 110.19 119.165 109.982 119.165 109.727 Z " fill="rgb(151,189,228)"/><path d=" M 136.925 109.727 L 136.925 109.536 C 136.925 109.281 136.716 109.072 136.461 109.072 L 127.193 109.072 C 126.938 109.072 126.729 109.281 126.729 109.536 L 126.729 109.727 C 126.729 109.982 126.938 110.19 127.193 110.19 L 136.461 110.19 C 136.716 110.19 136.925 109.982 136.925 109.727 Z " fill="rgb(151,189,228)"/><path d=" M 197.379 109.631 L 197.379 109.631 C 197.379 108.898 197.979 108.298 198.712 108.298 L 201.579 108.298 C 202.313 108.298 202.913 108.898 202.913 109.631 C 202.913 110.365 202.313 110.965 201.579 110.965 L 198.712 110.965 C 197.979 110.965 197.379 110.365 197.379 109.631 Z " fill="rgb(55,103,175)"/><path d=" M 196.364 109.727 L 196.364 109.536 C 196.364 109.281 196.155 109.072 195.9 109.072 L 186.631 109.072 C 186.376 109.072 186.168 109.281 186.168 109.536 L 186.168 109.727 C 186.168 109.982 186.376 110.19 186.631 110.19 L 195.9 110.19 C 196.155 110.19 196.364 109.982 196.364 109.727 Z " fill="rgb(151,189,228)"/><path d=" M 214.124 109.727 L 214.124 109.536 C 214.124 109.281 213.915 109.072 213.66 109.072 L 204.392 109.072 C 204.137 109.072 203.928 109.281 203.928 109.536 L 203.928 109.727 C 203.928 109.982 204.137 110.19 204.392 110.19 L 213.66 110.19 C 213.915 110.19 214.124 109.982 214.124 109.727 Z " fill="rgb(151,189,228)"/><path d=" M 200.146 125.538 L 200.146 125.538 C 198.327 125.538 196.839 124.05 196.839 122.231 L 196.839 115.122 C 196.839 113.303 198.327 111.815 200.146 111.815 C 201.964 111.815 203.453 113.303 203.453 115.122 L 203.453 122.231 C 203.453 124.05 201.964 125.538 200.146 125.538 Z " fill="rgb(55,103,175)"/><path d=" M 167.881 120.355 L 174.324 137.103 L 174.578 137.762 L 174.346 138.199 L 168.764 148.752 L 168.126 148.479 L 171.899 137.153 L 171.921 138.25 L 162.949 122.71 L 167.881 120.355 Z " fill="rgb(55,103,175)"/><path d=" M 160.9 116.447 L 160.9 120.907 C 160.9 123.737 158.58 126.057 155.75 126.057 L 150.48 126.057 C 146.47 126.057 143.19 122.777 143.19 118.768 L 143.19 118.587 C 143.19 114.577 146.47 111.297 150.48 111.297 L 155.75 111.297 C 158.58 111.297 160.9 113.617 160.9 116.447 Z " fill="rgb(62,112,181)"/></g></g></svg>